<svg width="96" height="96" viewBox="0 0 96 96" fill="none" xmlns="http://www.w3.org/2000/svg">
<path d="M88.6844 7.28417C88.4537 7.07626 88.1813 6.91987 87.8854 6.82538C87.5895 6.7309 87.2769 6.70048 86.9684 6.73617C80.4529 7.05305 74.0387 8.47601 68.0004 10.9442C58.0004 14.9842 48.8644 21.3442 40.8604 29.8082C40.2256 30.5051 39.3606 30.9497 38.4244 31.0602C33.8924 31.7962 29.4404 32.5802 24.9004 33.3882C24.3408 33.479 23.8196 33.7305 23.4004 34.1122C20.2991 37.1895 17.2031 40.2748 14.1124 43.3682L9.60041 47.8842C9.31009 48.1372 9.10095 48.4704 8.99919 48.8418C8.89744 49.2133 8.9076 49.6065 9.02841 49.9722C9.20041 50.4962 9.64441 51.1442 10.8004 51.2642L19.2844 52.1562C20.4844 52.2802 21.6844 52.4122 22.9804 52.5562L23.4964 52.6122C22.9084 53.1762 22.3644 53.7002 21.8284 54.2322C21.5845 54.4113 21.3862 54.6453 21.2495 54.9152C21.1128 55.1852 21.0416 55.4836 21.0416 55.7862C21.0416 56.0888 21.1128 56.3871 21.2495 56.6571C21.3862 56.9271 21.5845 57.1611 21.8284 57.3402C22.2604 57.7682 22.7004 58.1842 23.1524 58.6082L23.3284 58.7762L23.1924 58.9202L21.9244 60.1882C21.0844 61.0242 20.2484 61.8562 19.4164 62.7002C18.5844 63.5442 18.5244 64.7002 19.3684 65.5482C22.9924 69.1882 26.7364 72.9322 30.4884 76.6682C30.662 76.8536 30.871 77.0024 31.103 77.1057C31.3351 77.209 31.5855 77.2647 31.8394 77.2696C32.0934 77.2744 32.3457 77.2283 32.5816 77.1339C32.8174 77.0396 33.0319 76.8989 33.2124 76.7202C33.3804 76.5762 33.5324 76.4162 33.6884 76.2602L37.2364 72.7042L37.4044 72.8802C37.8044 73.3202 38.2324 73.7442 38.6444 74.1602C39.0481 74.6346 39.6235 74.9295 40.2444 74.9802C40.852 74.9303 41.4154 74.6428 41.8124 74.1802C42.3564 73.6242 42.8884 73.0602 43.4124 72.4962V72.6762C43.5124 73.5642 43.6084 74.4482 43.7044 75.3362C43.8484 76.7322 43.9964 78.1362 44.1404 79.5242C44.3404 81.4282 44.5391 83.3322 44.7364 85.2362C44.8764 86.5442 45.6724 86.9562 46.3364 87.0682C46.4497 87.0902 46.565 87.1009 46.6804 87.1002C46.9887 87.0788 47.2895 86.9952 47.5645 86.8542C47.8395 86.7133 48.0831 86.518 48.2804 86.2802C52.1684 82.3842 57.0084 77.5362 61.6644 72.9042C62.2168 72.3696 62.5744 71.6655 62.6804 70.9042C63.3484 66.9562 64.2324 61.7442 65.1604 56.5042C65.2282 56.2494 65.3669 56.0192 65.5604 55.8402C71.596 50.2784 76.7545 43.8347 80.8604 36.7282C86.0604 27.6162 88.8124 18.6362 89.2604 9.28017C89.3044 8.36017 89.1164 7.71617 88.6844 7.28417ZM85.3764 10.6442C85.0962 14.237 84.4256 17.7886 83.3764 21.2362C79.1084 20.6962 75.4524 17.0602 74.7764 12.6762C76.8004 11.8722 82.8204 10.7242 85.3764 10.6442ZM27.9724 53.5762L42.4004 68.0442L40.2084 70.2282L25.7684 55.7802L27.9724 53.5762ZM35.9724 35.4402C35.2604 36.3762 34.5884 37.2642 33.9244 38.1842C31.4437 41.6099 29.261 45.2418 27.4004 49.0402C27.372 49.1053 27.3386 49.1682 27.3004 49.2282H27.2284C23.9217 48.8602 20.6111 48.5042 17.2964 48.1602L14.9324 47.9082C18.4764 44.3615 22.0217 40.8188 25.5684 37.2802C25.6784 37.1674 25.8165 37.086 25.9684 37.0442C29.2644 36.4602 32.5644 35.8922 35.8644 35.3202L36.0884 35.2842L35.9724 35.4402ZM82.1604 24.8842L81.9524 25.4242C81.6244 26.2722 81.3124 27.0762 80.9604 27.8642C73.5724 44.3682 61.5364 56.9602 45.1884 65.2842C45.1301 65.3182 45.0666 65.3425 45.0004 65.3562C45.0004 65.3562 44.9444 65.3562 44.8124 65.2042C40.2244 60.5922 35.5004 55.8682 30.7764 51.1682C30.7281 51.1217 30.6827 51.0723 30.6404 51.0202C30.6563 50.9604 30.6792 50.9027 30.7084 50.8482C39.6404 33.3882 53.2004 20.9562 70.9804 13.9002L71.1204 13.8482C71.6708 16.5698 73.0118 19.0686 74.9756 21.0316C76.9393 22.9947 79.4386 24.3348 82.1604 24.8842ZM34.3204 70.0282L31.8564 72.5082L23.4564 64.1082L25.9324 61.6362L34.3204 70.0282ZM60.7204 59.9122L60.6204 60.5002C60.3684 61.9682 60.1284 63.3842 59.8844 64.7962C59.5924 66.4922 59.2884 68.2442 58.9724 69.9642C58.9521 70.0973 58.9 70.2235 58.8204 70.3322C55.2551 73.9162 51.6831 77.4935 48.1044 81.0642V80.9322C47.9884 79.8842 47.8764 78.8562 47.7684 77.8242L47.4324 74.6442C47.2284 72.7362 47.0324 70.8282 46.8164 68.8882C46.8129 68.8202 46.8129 68.7521 46.8164 68.6842L46.8604 68.6602C51.7795 66.2451 56.427 63.3125 60.7244 59.9122H60.7204Z" fill="#0C88A2"/>
<path d="M22.4525 76.2198C22.6216 76.0634 22.7731 75.8891 22.9045 75.6998C23.1477 75.3357 23.256 74.8979 23.2103 74.4623C23.1647 74.0268 22.9681 73.6209 22.6547 73.315C22.3412 73.0092 21.9307 72.8226 21.4941 72.7877C21.0576 72.7528 20.6226 72.8717 20.2645 73.1238C20.0837 73.2581 19.915 73.408 19.7605 73.5718L8.34847 84.9839C8.3224 85.0112 8.29432 85.0366 8.26447 85.0598C8.03627 85.2286 7.87708 85.4745 7.81647 85.7518L7.78447 85.9518C7.66341 86.4312 7.68285 86.9352 7.84047 87.4038C8.04029 87.7664 8.34587 88.0594 8.71647 88.2438C8.83647 88.3198 8.95647 88.3959 9.07247 88.4839C9.17783 88.5618 9.30542 88.6039 9.43647 88.6038C9.55467 88.6046 9.67037 88.5698 9.76847 88.5038C9.91647 88.4038 10.0565 88.3198 10.1685 88.2399C10.4731 88.07 10.7564 87.8646 11.0125 87.6279C14.3165 84.3479 17.6098 81.0598 20.8925 77.7638L22.4525 76.2198Z" fill="#0C88A2"/>
<path d="M27.4681 78.3362C27.2524 77.9944 26.9676 77.7015 26.6321 77.4762C25.9081 77.0482 25.0601 77.2122 24.3641 77.9082L20.4801 81.7962C19.1094 83.1642 17.7401 84.5349 16.3721 85.9082C15.4961 86.7882 15.4401 87.9082 16.2281 88.7082C16.3961 88.883 16.5972 89.0225 16.8197 89.1187C17.0422 89.2148 17.2817 89.2657 17.5241 89.2682H17.6321C18.1669 89.2168 18.6647 88.9722 19.0321 88.5802C21.5921 86.0282 24.3361 83.2882 27.0321 80.5802C27.2413 80.349 27.4164 80.089 27.5521 79.8082C27.6201 79.6802 27.6961 79.5402 27.7881 79.4082C27.8546 79.301 27.8854 79.1755 27.8761 79.0497C27.8667 78.9239 27.8177 78.8044 27.7361 78.7082C27.6361 78.5722 27.5521 78.4522 27.4681 78.3362Z" fill="#0C88A2"/>
<path d="M8.58816 80.3239C9.14851 80.306 9.67907 80.0673 10.0642 79.6599C13.2002 76.5479 15.7482 73.9999 18.1082 71.5999C18.3235 71.3638 18.4979 71.0934 18.6242 70.7999C18.6882 70.6719 18.7602 70.5319 18.8482 70.3799C18.9117 70.2699 18.939 70.1426 18.9261 70.0162C18.9131 69.8898 18.8607 69.7707 18.7762 69.6759C18.6758 69.566 18.581 69.4512 18.4922 69.3319C18.2657 69.0155 17.9822 68.7442 17.6562 68.5319C16.9562 68.1119 16.1322 68.2679 15.4522 68.9519L12.4202 71.9839L7.40816 76.9919C6.56816 77.8359 6.50816 78.9319 7.25216 79.7279C7.41857 79.9094 7.61973 80.0557 7.84372 80.1581C8.06771 80.2605 8.30998 80.3169 8.55616 80.3239H8.58816Z" fill="#0C88A2"/>
<path d="M61.9397 25.072H61.9116C60.1373 25.0815 58.4052 25.6147 56.9326 26.6046C55.46 27.5945 54.3124 28.9971 53.6337 30.6365C52.9549 32.2759 52.7752 34.0792 53.1171 35.8204C53.459 37.5615 54.3073 39.163 55.5556 40.424C56.3844 41.2596 57.3709 41.9222 58.4579 42.3734C59.5449 42.8245 60.7107 43.0552 61.8876 43.052H61.9077C63.1041 43.0793 64.2939 42.8674 65.4074 42.4289C66.521 41.9904 67.5357 41.334 68.3923 40.4983C69.2489 39.6625 69.93 38.6642 70.3957 37.5618C70.8615 36.4593 71.1025 35.2751 71.1046 34.0783C71.1067 32.8816 70.8699 31.6964 70.4081 30.5924C69.9463 29.4883 69.2688 28.4876 68.4152 27.6488C67.5616 26.8099 66.5492 26.15 65.4372 25.7075C64.3253 25.265 63.1362 25.049 61.9397 25.072ZM67.1596 34.048C67.1576 35.434 66.6077 36.763 65.6299 37.7453C64.6521 38.7276 63.3256 39.2835 61.9397 39.292C60.5787 39.2543 59.286 38.6872 58.3367 37.7112C57.3874 36.7353 56.8562 35.4275 56.8562 34.066C56.8562 32.7045 57.3874 31.3967 58.3367 30.4207C59.286 29.4447 60.5787 28.8776 61.9397 28.84H61.9756C63.3488 28.8587 64.6602 29.4142 65.629 30.3875C66.5978 31.3608 67.1472 32.6747 67.1596 34.048Z" fill="#0C88A2"/>
</svg>
